<mxfile host="65bd71144e">
    <diagram id="nj4qnh-6XweAHyfNdQ5v" name="第 1 页">
        <mxGraphModel dx="1002" dy="659" grid="1" gridSize="10" guides="1" tooltips="1" connect="1" arrows="1" fold="1" page="1" pageScale="1" pageWidth="827" pageHeight="1169" math="0" shadow="0">
            <root>
                <mxCell id="0"/>
                <mxCell id="1" parent="0"/>
                <mxCell id="2" value="" style="endArrow=classic;html=1;shadow=0;orthogonal=0;comic=0;ignoreEdge=0;flowAnimation=1;" edge="1" parent="1">
                    <mxGeometry width="50" height="50" relative="1" as="geometry">
                        <mxPoint x="160" y="220" as="sourcePoint"/>
                        <mxPoint x="320" y="220" as="targetPoint"/>
                    </mxGeometry>
                </mxCell>
                <mxCell id="3" value="" style="rounded=0;whiteSpace=wrap;html=1;" vertex="1" parent="1">
                    <mxGeometry x="360" y="190" width="120" height="60" as="geometry"/>
                </mxCell>
                <mxCell id="4" value="" style="shape=cylinder3;whiteSpace=wrap;html=1;boundedLbl=1;backgroundOutline=1;size=15;autosize=0;movableLabel=0;metaEdit=0;collapsible=0;dropTarget=0;container=0;comic=0;enumerate=0;moveCells=0;treeMoving=0;treeFolding=0;resizeHeight=0;fixedWidth=0;portConstraintRotation=0;direction=north;noLabel=1;" vertex="1" parent="1">
                    <mxGeometry x="490" y="180" width="60" height="80" as="geometry"/>
                </mxCell>
            </root>
        </mxGraphModel>
    </diagram>
</mxfile>